<mxfile host="65bd71144e">
    <diagram name="Pagina-1" id="31i2vkPpQf1o8NcAsSxa">
        <mxGraphModel dx="1130" dy="792" grid="1" gridSize="10" guides="1" tooltips="1" connect="1" arrows="1" fold="1" page="1" pageScale="1" pageWidth="827" pageHeight="1169" math="0" shadow="0">
            <root>
                <mxCell id="0"/>
                <mxCell id="1" parent="0"/>
                <mxCell id="102" value="Utenti" style="shape=table;startSize=30;container=1;collapsible=1;childLayout=tableLayout;fixedRows=1;rowLines=0;fontStyle=1;align=center;resizeLast=1;" parent="1" vertex="1">
                    <mxGeometry x="80" y="320" width="180" height="210" as="geometry"/>
                </mxCell>
                <mxCell id="103" value="" style="shape=tableRow;horizontal=0;startSize=0;swimlaneHead=0;swimlaneBody=0;fillColor=none;collapsible=0;dropTarget=0;points=[[0,0.5],[1,0.5]];portConstraint=eastwest;top=0;left=0;right=0;bottom=1;" parent="102" vertex="1">
                    <mxGeometry y="30" width="180" height="30" as="geometry"/>
                </mxCell>
                <mxCell id="104" value="PK" style="shape=partialRectangle;connectable=0;fillColor=none;top=0;left=0;bottom=0;right=0;fontStyle=1;overflow=hidden;" parent="103" vertex="1">
                    <mxGeometry width="30" height="30" as="geometry">
                        <mxRectangle width="30" height="30" as="alternateBounds"/>
                    </mxGeometry>
                </mxCell>
                <mxCell id="105" value="utente_id" style="shape=partialRectangle;connectable=0;fillColor=none;top=0;left=0;bottom=0;right=0;align=left;spacingLeft=6;fontStyle=5;overflow=hidden;" parent="103" vertex="1">
                    <mxGeometry x="30" width="150" height="30" as="geometry">
                        <mxRectangle width="150" height="30" as="alternateBounds"/>
                    </mxGeometry>
                </mxCell>
                <mxCell id="106" value="" style="shape=tableRow;horizontal=0;startSize=0;swimlaneHead=0;swimlaneBody=0;fillColor=none;collapsible=0;dropTarget=0;points=[[0,0.5],[1,0.5]];portConstraint=eastwest;top=0;left=0;right=0;bottom=0;" parent="102" vertex="1">
                    <mxGeometry y="60" width="180" height="30" as="geometry"/>
                </mxCell>
                <mxCell id="107" value="" style="shape=partialRectangle;connectable=0;fillColor=none;top=0;left=0;bottom=0;right=0;editable=1;overflow=hidden;" parent="106" vertex="1">
                    <mxGeometry width="30" height="30" as="geometry">
                        <mxRectangle width="30" height="30" as="alternateBounds"/>
                    </mxGeometry>
                </mxCell>
                <mxCell id="108" value="nome" style="shape=partialRectangle;connectable=0;fillColor=none;top=0;left=0;bottom=0;right=0;align=left;spacingLeft=6;overflow=hidden;" parent="106" vertex="1">
                    <mxGeometry x="30" width="150" height="30" as="geometry">
                        <mxRectangle width="150" height="30" as="alternateBounds"/>
                    </mxGeometry>
                </mxCell>
                <mxCell id="109" value="" style="shape=tableRow;horizontal=0;startSize=0;swimlaneHead=0;swimlaneBody=0;fillColor=none;collapsible=0;dropTarget=0;points=[[0,0.5],[1,0.5]];portConstraint=eastwest;top=0;left=0;right=0;bottom=0;" parent="102" vertex="1">
                    <mxGeometry y="90" width="180" height="30" as="geometry"/>
                </mxCell>
                <mxCell id="110" value="" style="shape=partialRectangle;connectable=0;fillColor=none;top=0;left=0;bottom=0;right=0;editable=1;overflow=hidden;" parent="109" vertex="1">
                    <mxGeometry width="30" height="30" as="geometry">
                        <mxRectangle width="30" height="30" as="alternateBounds"/>
                    </mxGeometry>
                </mxCell>
                <mxCell id="111" value="cognome" style="shape=partialRectangle;connectable=0;fillColor=none;top=0;left=0;bottom=0;right=0;align=left;spacingLeft=6;overflow=hidden;" parent="109" vertex="1">
                    <mxGeometry x="30" width="150" height="30" as="geometry">
                        <mxRectangle width="150" height="30" as="alternateBounds"/>
                    </mxGeometry>
                </mxCell>
                <mxCell id="112" value="" style="shape=tableRow;horizontal=0;startSize=0;swimlaneHead=0;swimlaneBody=0;fillColor=none;collapsible=0;dropTarget=0;points=[[0,0.5],[1,0.5]];portConstraint=eastwest;top=0;left=0;right=0;bottom=0;" parent="102" vertex="1">
                    <mxGeometry y="120" width="180" height="30" as="geometry"/>
                </mxCell>
                <mxCell id="113" value="" style="shape=partialRectangle;connectable=0;fillColor=none;top=0;left=0;bottom=0;right=0;editable=1;overflow=hidden;" parent="112" vertex="1">
                    <mxGeometry width="30" height="30" as="geometry">
                        <mxRectangle width="30" height="30" as="alternateBounds"/>
                    </mxGeometry>
                </mxCell>
                <mxCell id="114" value="email" style="shape=partialRectangle;connectable=0;fillColor=none;top=0;left=0;bottom=0;right=0;align=left;spacingLeft=6;overflow=hidden;" parent="112" vertex="1">
                    <mxGeometry x="30" width="150" height="30" as="geometry">
                        <mxRectangle width="150" height="30" as="alternateBounds"/>
                    </mxGeometry>
                </mxCell>
                <mxCell id="115" value="" style="shape=tableRow;horizontal=0;startSize=0;swimlaneHead=0;swimlaneBody=0;fillColor=none;collapsible=0;dropTarget=0;points=[[0,0.5],[1,0.5]];portConstraint=eastwest;top=0;left=0;right=0;bottom=0;" parent="102" vertex="1">
                    <mxGeometry y="150" width="180" height="30" as="geometry"/>
                </mxCell>
                <mxCell id="116" value="" style="shape=partialRectangle;connectable=0;fillColor=none;top=0;left=0;bottom=0;right=0;editable=1;overflow=hidden;" parent="115" vertex="1">
                    <mxGeometry width="30" height="30" as="geometry">
                        <mxRectangle width="30" height="30" as="alternateBounds"/>
                    </mxGeometry>
                </mxCell>
                <mxCell id="117" value="password" style="shape=partialRectangle;connectable=0;fillColor=none;top=0;left=0;bottom=0;right=0;align=left;spacingLeft=6;overflow=hidden;" parent="115" vertex="1">
                    <mxGeometry x="30" width="150" height="30" as="geometry">
                        <mxRectangle width="150" height="30" as="alternateBounds"/>
                    </mxGeometry>
                </mxCell>
                <mxCell id="147" value="" style="shape=tableRow;horizontal=0;startSize=0;swimlaneHead=0;swimlaneBody=0;fillColor=none;collapsible=0;dropTarget=0;points=[[0,0.5],[1,0.5]];portConstraint=eastwest;top=0;left=0;right=0;bottom=0;" vertex="1" parent="102">
                    <mxGeometry y="180" width="180" height="30" as="geometry"/>
                </mxCell>
                <mxCell id="148" value="PK" style="shape=partialRectangle;connectable=0;fillColor=none;top=0;left=0;bottom=0;right=0;editable=1;overflow=hidden;" vertex="1" parent="147">
                    <mxGeometry width="30" height="30" as="geometry">
                        <mxRectangle width="30" height="30" as="alternateBounds"/>
                    </mxGeometry>
                </mxCell>
                <mxCell id="149" value="carta_pagamento_id" style="shape=partialRectangle;connectable=0;fillColor=none;top=0;left=0;bottom=0;right=0;align=left;spacingLeft=6;overflow=hidden;" vertex="1" parent="147">
                    <mxGeometry x="30" width="150" height="30" as="geometry">
                        <mxRectangle width="150" height="30" as="alternateBounds"/>
                    </mxGeometry>
                </mxCell>
                <mxCell id="118" value="Prenotazioni" style="shape=table;startSize=30;container=1;collapsible=1;childLayout=tableLayout;fixedRows=1;rowLines=0;fontStyle=1;align=center;resizeLast=1;" parent="1" vertex="1">
                    <mxGeometry x="440" y="340" width="180" height="150" as="geometry"/>
                </mxCell>
                <mxCell id="119" value="" style="shape=tableRow;horizontal=0;startSize=0;swimlaneHead=0;swimlaneBody=0;fillColor=none;collapsible=0;dropTarget=0;points=[[0,0.5],[1,0.5]];portConstraint=eastwest;top=0;left=0;right=0;bottom=1;" parent="118" vertex="1">
                    <mxGeometry y="30" width="180" height="30" as="geometry"/>
                </mxCell>
                <mxCell id="120" value="PK" style="shape=partialRectangle;connectable=0;fillColor=none;top=0;left=0;bottom=0;right=0;fontStyle=1;overflow=hidden;" parent="119" vertex="1">
                    <mxGeometry width="30" height="30" as="geometry">
                        <mxRectangle width="30" height="30" as="alternateBounds"/>
                    </mxGeometry>
                </mxCell>
                <mxCell id="121" value="prenotazione_id" style="shape=partialRectangle;connectable=0;fillColor=none;top=0;left=0;bottom=0;right=0;align=left;spacingLeft=6;fontStyle=5;overflow=hidden;" parent="119" vertex="1">
                    <mxGeometry x="30" width="150" height="30" as="geometry">
                        <mxRectangle width="150" height="30" as="alternateBounds"/>
                    </mxGeometry>
                </mxCell>
                <mxCell id="122" value="" style="shape=tableRow;horizontal=0;startSize=0;swimlaneHead=0;swimlaneBody=0;fillColor=none;collapsible=0;dropTarget=0;points=[[0,0.5],[1,0.5]];portConstraint=eastwest;top=0;left=0;right=0;bottom=0;" parent="118" vertex="1">
                    <mxGeometry y="60" width="180" height="30" as="geometry"/>
                </mxCell>
                <mxCell id="123" value="FK" style="shape=partialRectangle;connectable=0;fillColor=none;top=0;left=0;bottom=0;right=0;editable=1;overflow=hidden;" parent="122" vertex="1">
                    <mxGeometry width="30" height="30" as="geometry">
                        <mxRectangle width="30" height="30" as="alternateBounds"/>
                    </mxGeometry>
                </mxCell>
                <mxCell id="124" value="utente_id" style="shape=partialRectangle;connectable=0;fillColor=none;top=0;left=0;bottom=0;right=0;align=left;spacingLeft=6;overflow=hidden;" parent="122" vertex="1">
                    <mxGeometry x="30" width="150" height="30" as="geometry">
                        <mxRectangle width="150" height="30" as="alternateBounds"/>
                    </mxGeometry>
                </mxCell>
                <mxCell id="125" value="" style="shape=tableRow;horizontal=0;startSize=0;swimlaneHead=0;swimlaneBody=0;fillColor=none;collapsible=0;dropTarget=0;points=[[0,0.5],[1,0.5]];portConstraint=eastwest;top=0;left=0;right=0;bottom=0;" parent="118" vertex="1">
                    <mxGeometry y="90" width="180" height="30" as="geometry"/>
                </mxCell>
                <mxCell id="126" value="" style="shape=partialRectangle;connectable=0;fillColor=none;top=0;left=0;bottom=0;right=0;editable=1;overflow=hidden;" parent="125" vertex="1">
                    <mxGeometry width="30" height="30" as="geometry">
                        <mxRectangle width="30" height="30" as="alternateBounds"/>
                    </mxGeometry>
                </mxCell>
                <mxCell id="127" value="Row 2" style="shape=partialRectangle;connectable=0;fillColor=none;top=0;left=0;bottom=0;right=0;align=left;spacingLeft=6;overflow=hidden;" parent="125" vertex="1">
                    <mxGeometry x="30" width="150" height="30" as="geometry">
                        <mxRectangle width="150" height="30" as="alternateBounds"/>
                    </mxGeometry>
                </mxCell>
                <mxCell id="128" value="" style="shape=tableRow;horizontal=0;startSize=0;swimlaneHead=0;swimlaneBody=0;fillColor=none;collapsible=0;dropTarget=0;points=[[0,0.5],[1,0.5]];portConstraint=eastwest;top=0;left=0;right=0;bottom=0;" parent="118" vertex="1">
                    <mxGeometry y="120" width="180" height="30" as="geometry"/>
                </mxCell>
                <mxCell id="129" value="" style="shape=partialRectangle;connectable=0;fillColor=none;top=0;left=0;bottom=0;right=0;editable=1;overflow=hidden;" parent="128" vertex="1">
                    <mxGeometry width="30" height="30" as="geometry">
                        <mxRectangle width="30" height="30" as="alternateBounds"/>
                    </mxGeometry>
                </mxCell>
                <mxCell id="130" value="Row 3" style="shape=partialRectangle;connectable=0;fillColor=none;top=0;left=0;bottom=0;right=0;align=left;spacingLeft=6;overflow=hidden;" parent="128" vertex="1">
                    <mxGeometry x="30" width="150" height="30" as="geometry">
                        <mxRectangle width="150" height="30" as="alternateBounds"/>
                    </mxGeometry>
                </mxCell>
                <mxCell id="131" value="CartePagamento" style="shape=table;startSize=30;container=1;collapsible=1;childLayout=tableLayout;fixedRows=1;rowLines=0;fontStyle=1;align=center;resizeLast=1;" vertex="1" parent="1">
                    <mxGeometry x="80" y="80" width="180" height="180" as="geometry"/>
                </mxCell>
                <mxCell id="132" value="" style="shape=tableRow;horizontal=0;startSize=0;swimlaneHead=0;swimlaneBody=0;fillColor=none;collapsible=0;dropTarget=0;points=[[0,0.5],[1,0.5]];portConstraint=eastwest;top=0;left=0;right=0;bottom=1;" vertex="1" parent="131">
                    <mxGeometry y="30" width="180" height="30" as="geometry"/>
                </mxCell>
                <mxCell id="133" value="PK" style="shape=partialRectangle;connectable=0;fillColor=none;top=0;left=0;bottom=0;right=0;fontStyle=1;overflow=hidden;" vertex="1" parent="132">
                    <mxGeometry width="30" height="30" as="geometry">
                        <mxRectangle width="30" height="30" as="alternateBounds"/>
                    </mxGeometry>
                </mxCell>
                <mxCell id="134" value="carta_pagamento_id" style="shape=partialRectangle;connectable=0;fillColor=none;top=0;left=0;bottom=0;right=0;align=left;spacingLeft=6;fontStyle=5;overflow=hidden;" vertex="1" parent="132">
                    <mxGeometry x="30" width="150" height="30" as="geometry">
                        <mxRectangle width="150" height="30" as="alternateBounds"/>
                    </mxGeometry>
                </mxCell>
                <mxCell id="135" value="" style="shape=tableRow;horizontal=0;startSize=0;swimlaneHead=0;swimlaneBody=0;fillColor=none;collapsible=0;dropTarget=0;points=[[0,0.5],[1,0.5]];portConstraint=eastwest;top=0;left=0;right=0;bottom=0;" vertex="1" parent="131">
                    <mxGeometry y="60" width="180" height="30" as="geometry"/>
                </mxCell>
                <mxCell id="136" value="" style="shape=partialRectangle;connectable=0;fillColor=none;top=0;left=0;bottom=0;right=0;editable=1;overflow=hidden;" vertex="1" parent="135">
                    <mxGeometry width="30" height="30" as="geometry">
                        <mxRectangle width="30" height="30" as="alternateBounds"/>
                    </mxGeometry>
                </mxCell>
                <mxCell id="137" value="titolare" style="shape=partialRectangle;connectable=0;fillColor=none;top=0;left=0;bottom=0;right=0;align=left;spacingLeft=6;overflow=hidden;" vertex="1" parent="135">
                    <mxGeometry x="30" width="150" height="30" as="geometry">
                        <mxRectangle width="150" height="30" as="alternateBounds"/>
                    </mxGeometry>
                </mxCell>
                <mxCell id="138" value="" style="shape=tableRow;horizontal=0;startSize=0;swimlaneHead=0;swimlaneBody=0;fillColor=none;collapsible=0;dropTarget=0;points=[[0,0.5],[1,0.5]];portConstraint=eastwest;top=0;left=0;right=0;bottom=0;" vertex="1" parent="131">
                    <mxGeometry y="90" width="180" height="30" as="geometry"/>
                </mxCell>
                <mxCell id="139" value="" style="shape=partialRectangle;connectable=0;fillColor=none;top=0;left=0;bottom=0;right=0;editable=1;overflow=hidden;" vertex="1" parent="138">
                    <mxGeometry width="30" height="30" as="geometry">
                        <mxRectangle width="30" height="30" as="alternateBounds"/>
                    </mxGeometry>
                </mxCell>
                <mxCell id="140" value="numero_carta" style="shape=partialRectangle;connectable=0;fillColor=none;top=0;left=0;bottom=0;right=0;align=left;spacingLeft=6;overflow=hidden;" vertex="1" parent="138">
                    <mxGeometry x="30" width="150" height="30" as="geometry">
                        <mxRectangle width="150" height="30" as="alternateBounds"/>
                    </mxGeometry>
                </mxCell>
                <mxCell id="141" value="" style="shape=tableRow;horizontal=0;startSize=0;swimlaneHead=0;swimlaneBody=0;fillColor=none;collapsible=0;dropTarget=0;points=[[0,0.5],[1,0.5]];portConstraint=eastwest;top=0;left=0;right=0;bottom=0;" vertex="1" parent="131">
                    <mxGeometry y="120" width="180" height="30" as="geometry"/>
                </mxCell>
                <mxCell id="142" value="" style="shape=partialRectangle;connectable=0;fillColor=none;top=0;left=0;bottom=0;right=0;editable=1;overflow=hidden;" vertex="1" parent="141">
                    <mxGeometry width="30" height="30" as="geometry">
                        <mxRectangle width="30" height="30" as="alternateBounds"/>
                    </mxGeometry>
                </mxCell>
                <mxCell id="143" value="data_scadenza" style="shape=partialRectangle;connectable=0;fillColor=none;top=0;left=0;bottom=0;right=0;align=left;spacingLeft=6;overflow=hidden;" vertex="1" parent="141">
                    <mxGeometry x="30" width="150" height="30" as="geometry">
                        <mxRectangle width="150" height="30" as="alternateBounds"/>
                    </mxGeometry>
                </mxCell>
                <mxCell id="144" value="" style="shape=tableRow;horizontal=0;startSize=0;swimlaneHead=0;swimlaneBody=0;fillColor=none;collapsible=0;dropTarget=0;points=[[0,0.5],[1,0.5]];portConstraint=eastwest;top=0;left=0;right=0;bottom=0;" vertex="1" parent="131">
                    <mxGeometry y="150" width="180" height="30" as="geometry"/>
                </mxCell>
                <mxCell id="145" value="" style="shape=partialRectangle;connectable=0;fillColor=none;top=0;left=0;bottom=0;right=0;editable=1;overflow=hidden;" vertex="1" parent="144">
                    <mxGeometry width="30" height="30" as="geometry">
                        <mxRectangle width="30" height="30" as="alternateBounds"/>
                    </mxGeometry>
                </mxCell>
                <mxCell id="146" value="codice_sicurezza" style="shape=partialRectangle;connectable=0;fillColor=none;top=0;left=0;bottom=0;right=0;align=left;spacingLeft=6;overflow=hidden;" vertex="1" parent="144">
                    <mxGeometry x="30" width="150" height="30" as="geometry">
                        <mxRectangle width="150" height="30" as="alternateBounds"/>
                    </mxGeometry>
                </mxCell>
                <mxCell id="150" value="" style="edgeStyle=elbowEdgeStyle;fontSize=12;html=1;endArrow=ERoneToMany;entryX=0;entryY=0.5;entryDx=0;entryDy=0;exitX=0;exitY=0.5;exitDx=0;exitDy=0;" edge="1" parent="1" source="132" target="147">
                    <mxGeometry width="100" height="100" relative="1" as="geometry">
                        <mxPoint x="340" y="560" as="sourcePoint"/>
                        <mxPoint x="460" y="260" as="targetPoint"/>
                        <Array as="points">
                            <mxPoint x="40" y="320"/>
                        </Array>
                    </mxGeometry>
                </mxCell>
                <mxCell id="151" value="Treni" style="shape=table;startSize=30;container=1;collapsible=1;childLayout=tableLayout;fixedRows=1;rowLines=0;fontStyle=1;align=center;resizeLast=1;" vertex="1" parent="1">
                    <mxGeometry x="324" y="80" width="180" height="150" as="geometry"/>
                </mxCell>
                <mxCell id="152" value="" style="shape=tableRow;horizontal=0;startSize=0;swimlaneHead=0;swimlaneBody=0;fillColor=none;collapsible=0;dropTarget=0;points=[[0,0.5],[1,0.5]];portConstraint=eastwest;top=0;left=0;right=0;bottom=1;" vertex="1" parent="151">
                    <mxGeometry y="30" width="180" height="30" as="geometry"/>
                </mxCell>
                <mxCell id="153" value="PK" style="shape=partialRectangle;connectable=0;fillColor=none;top=0;left=0;bottom=0;right=0;fontStyle=1;overflow=hidden;" vertex="1" parent="152">
                    <mxGeometry width="30" height="30" as="geometry">
                        <mxRectangle width="30" height="30" as="alternateBounds"/>
                    </mxGeometry>
                </mxCell>
                <mxCell id="154" value="treno_id" style="shape=partialRectangle;connectable=0;fillColor=none;top=0;left=0;bottom=0;right=0;align=left;spacingLeft=6;fontStyle=5;overflow=hidden;" vertex="1" parent="152">
                    <mxGeometry x="30" width="150" height="30" as="geometry">
                        <mxRectangle width="150" height="30" as="alternateBounds"/>
                    </mxGeometry>
                </mxCell>
                <mxCell id="155" value="" style="shape=tableRow;horizontal=0;startSize=0;swimlaneHead=0;swimlaneBody=0;fillColor=none;collapsible=0;dropTarget=0;points=[[0,0.5],[1,0.5]];portConstraint=eastwest;top=0;left=0;right=0;bottom=0;" vertex="1" parent="151">
                    <mxGeometry y="60" width="180" height="30" as="geometry"/>
                </mxCell>
                <mxCell id="156" value="" style="shape=partialRectangle;connectable=0;fillColor=none;top=0;left=0;bottom=0;right=0;editable=1;overflow=hidden;" vertex="1" parent="155">
                    <mxGeometry width="30" height="30" as="geometry">
                        <mxRectangle width="30" height="30" as="alternateBounds"/>
                    </mxGeometry>
                </mxCell>
                <mxCell id="157" value="Row 1" style="shape=partialRectangle;connectable=0;fillColor=none;top=0;left=0;bottom=0;right=0;align=left;spacingLeft=6;overflow=hidden;" vertex="1" parent="155">
                    <mxGeometry x="30" width="150" height="30" as="geometry">
                        <mxRectangle width="150" height="30" as="alternateBounds"/>
                    </mxGeometry>
                </mxCell>
                <mxCell id="158" value="" style="shape=tableRow;horizontal=0;startSize=0;swimlaneHead=0;swimlaneBody=0;fillColor=none;collapsible=0;dropTarget=0;points=[[0,0.5],[1,0.5]];portConstraint=eastwest;top=0;left=0;right=0;bottom=0;" vertex="1" parent="151">
                    <mxGeometry y="90" width="180" height="30" as="geometry"/>
                </mxCell>
                <mxCell id="159" value="" style="shape=partialRectangle;connectable=0;fillColor=none;top=0;left=0;bottom=0;right=0;editable=1;overflow=hidden;" vertex="1" parent="158">
                    <mxGeometry width="30" height="30" as="geometry">
                        <mxRectangle width="30" height="30" as="alternateBounds"/>
                    </mxGeometry>
                </mxCell>
                <mxCell id="160" value="Row 2" style="shape=partialRectangle;connectable=0;fillColor=none;top=0;left=0;bottom=0;right=0;align=left;spacingLeft=6;overflow=hidden;" vertex="1" parent="158">
                    <mxGeometry x="30" width="150" height="30" as="geometry">
                        <mxRectangle width="150" height="30" as="alternateBounds"/>
                    </mxGeometry>
                </mxCell>
                <mxCell id="161" value="" style="shape=tableRow;horizontal=0;startSize=0;swimlaneHead=0;swimlaneBody=0;fillColor=none;collapsible=0;dropTarget=0;points=[[0,0.5],[1,0.5]];portConstraint=eastwest;top=0;left=0;right=0;bottom=0;" vertex="1" parent="151">
                    <mxGeometry y="120" width="180" height="30" as="geometry"/>
                </mxCell>
                <mxCell id="162" value="" style="shape=partialRectangle;connectable=0;fillColor=none;top=0;left=0;bottom=0;right=0;editable=1;overflow=hidden;" vertex="1" parent="161">
                    <mxGeometry width="30" height="30" as="geometry">
                        <mxRectangle width="30" height="30" as="alternateBounds"/>
                    </mxGeometry>
                </mxCell>
                <mxCell id="163" value="Row 3" style="shape=partialRectangle;connectable=0;fillColor=none;top=0;left=0;bottom=0;right=0;align=left;spacingLeft=6;overflow=hidden;" vertex="1" parent="161">
                    <mxGeometry x="30" width="150" height="30" as="geometry">
                        <mxRectangle width="150" height="30" as="alternateBounds"/>
                    </mxGeometry>
                </mxCell>
            </root>
        </mxGraphModel>
    </diagram>
</mxfile>